<svg version="1.1" xmlns="http://www.w3.org/2000/svg" xmlns:xlink="http://www.w3.org/1999/xlink" xmlns:i="http://ns.adobe.com/AdobeIllustrator/10.0/" xmlns:sketch="http://www.bohemiancoding.com/sketch/ns" height="100%" width="100%" x="0px" y="0px" viewBox="0 0 640 480" xml:space="preserve" preserveAspectRatio="xMidYMid meet" class="">
  <g  fill="#89edd4">
    <path d="M27.30-46.20L3.45-79.80L3.45-79.80Q4.20-81.90 5.55-84L5.55-84L5.55-84Q6.90-86.10 8.92-87.83L8.92-87.83L8.92-87.83Q10.95-89.55 13.65-90.67L13.65-90.67L13.65-90.67Q16.35-91.80 19.65-91.80L19.65-91.80L19.65-91.80Q24-91.80 27.30-89.63L27.30-89.63L27.30-89.63Q30.60-87.45 34.05-82.20L34.05-82.20L45.75-64.35L63-89.85L63-89.85Q64.20-90.45 66.38-90.97L66.38-90.97L66.38-90.97Q68.55-91.50 70.65-91.50L70.65-91.50L70.65-91.50Q77.55-91.50 81.45-88.20L81.45-88.20L81.45-88.20Q85.35-84.90 85.35-80.10L85.35-80.10L85.35-80.10Q85.35-75.90 83.17-72.60L83.17-72.60L83.17-72.60Q81-69.30 77.25-64.65L77.25-64.65L61.80-45.75L86.25-10.80L86.25-10.80Q85.05-5.25 81.08-2.02L81.08-2.02L81.08-2.02Q77.10 1.20 70.35 1.20L70.35 1.20L70.35 1.20Q66 1.20 62.85-0.97L62.85-0.97L62.85-0.97Q59.70-3.15 56.40-8.40L56.40-8.40L44.25-27.60L25.35 0.90L25.35 0.90Q24.15 1.05 23.10 1.13L23.10 1.13L23.10 1.13Q22.05 1.20 21 1.20L21 1.20L21 1.20Q12.45 1.20 8.40-2.25L8.40-2.25L8.40-2.25Q4.35-5.70 4.35-10.80L4.35-10.80L4.35-10.80Q4.35-15.15 6.22-18.38L6.22-18.38L6.22-18.38Q8.10-21.60 11.55-25.95L11.55-25.95L27.30-46.20Z"></path>
  </g>
</svg>